<?xml version="1.0" encoding="UTF-8"?>
<svg width="167px" height="72px" viewBox="0 0 167 72" version="1.1" xmlns="http://www.w3.org/2000/svg" xmlns:xlink="http://www.w3.org/1999/xlink">
    <!-- Generator: Sketch 62 (91390) - https://sketch.com -->
    <title>Group 2</title>
    <desc>Created with Sketch.</desc>
    <g id="Ari" stroke="none" stroke-width="1" fill="none" fill-rule="evenodd">
        <g id="Vis_03-Copy-2" transform="translate(-108.000000, -1061.000000)" fill-rule="nonzero">
            <g id="Group-2" transform="translate(110.000000, 1058.000000)">
                <path d="M118.33309,14 L118.33309,12.4538367 L113.848719,12.4538367 L113.848719,3.81819153 L112.00426,3.81819153 L112.00426,14 L118.33309,14 Z M122.046872,14.1541192 C123.245024,14.1541192 123.960933,13.5923299 124.289057,12.9509953 L124.348716,12.9509953 L124.348716,14 L126.078828,14 L126.078828,8.88920942 C126.078828,6.87074544 124.433233,6.26421192 122.976559,6.26421192 C121.370736,6.26421192 120.137783,6.98012033 119.740056,8.37216446 L121.420452,8.61080059 C121.599429,8.08878405 122.106531,7.64134129 122.986502,7.64134129 C123.821728,7.64134129 124.279114,8.0688977 124.279114,8.81960721 L124.279114,8.84943673 C124.279114,9.36648169 123.737211,9.39133962 122.389911,9.53551562 C120.908379,9.69460638 119.491477,10.1370775 119.491477,11.8572464 C119.491477,13.3586654 120.590197,14.1541192 122.046872,14.1541192 Z M122.514201,12.8316773 C121.763492,12.8316773 121.22656,12.4886378 121.22656,11.8274168 C121.22656,11.1363664 121.828122,10.8480144 122.633519,10.7336679 C123.10582,10.6690373 124.050421,10.5497192 124.284086,10.3607989 L124.284086,11.260656 C124.284086,12.1107973 123.598007,12.8316773 122.514201,12.8316773 Z M129.693179,14 L129.693179,9.51065769 C129.693179,8.54119839 130.424002,7.8551195 131.413348,7.8551195 C131.716615,7.8551195 132.094455,7.90980694 132.248575,7.95952281 L132.248575,6.30398461 C132.084512,6.2741551 131.801132,6.25426875 131.602268,6.25426875 C130.727269,6.25426875 129.996446,6.75142737 129.718037,7.63636971 L129.638492,7.63636971 L129.638492,6.36364365 L127.893465,6.36364365 L127.893465,14 L129.693179,14 Z M136.44957,16.9928949 C138.512778,16.9928949 140.034083,16.0482935 140.034083,14.1242897 L140.034083,6.36364365 L138.259227,6.36364365 L138.259227,7.62642653 L138.159795,7.62642653 C137.886358,7.07458047 137.314626,6.26421192 135.967326,6.26421192 C134.202413,6.26421192 132.81534,7.64631288 132.81534,10.1569639 C132.81534,12.6477286 134.202413,13.8906251 135.962354,13.8906251 C137.269882,13.8906251 137.881387,13.1896315 138.159795,12.6278422 L138.249284,12.6278422 L138.249284,14.0745738 C138.249284,15.1683227 137.503546,15.6306803 136.479399,15.6306803 C135.395594,15.6306803 134.918321,15.1186069 134.699571,14.7009936 L133.078834,15.093749 C133.406959,16.1328105 134.50568,16.9928949 136.44957,16.9928949 Z M136.464485,12.4786946 C135.276275,12.4786946 134.649856,11.5539796 134.649856,10.1470207 C134.649856,8.75994818 135.266332,7.74077301 136.464485,7.74077301 C137.622864,7.74077301 138.259227,8.70028915 138.259227,10.1470207 C138.259227,11.6036955 137.612921,12.4786946 136.464485,12.4786946 Z M145.2642,14.1491476 C147.044028,14.1491476 148.267038,13.27912 148.58522,11.9517065 L146.904824,11.7627862 C146.661216,12.4090924 146.064626,12.7471603 145.289058,12.7471603 C144.125707,12.7471603 143.355111,11.981536 143.340197,10.6740089 L148.659794,10.6740089 L148.659794,10.1221628 C148.659794,7.44247784 147.049,6.26421192 145.16974,6.26421192 C142.982242,6.26421192 141.555397,7.87003426 141.555397,10.2265661 C141.555397,12.6228706 142.962356,14.1491476 145.2642,14.1491476 Z M146.934653,9.46094183 L143.345168,9.46094183 C143.399856,8.48651094 144.120736,7.66619922 145.194598,7.66619922 C146.228688,7.66619922 146.92471,8.42188032 146.934653,9.46094183 Z" id="Large" fill="#000000"></path>
                <path d="M115.588774,55.1541192 C118.029823,55.1541192 119.446725,53.9360806 119.451696,52.141338 C119.446725,50.3764249 117.99005,49.5710279 116.458802,49.2081021 L115.504257,48.969466 C114.669031,48.7706025 113.764202,48.4176199 113.774145,47.5674787 C113.779117,46.8018544 114.465196,46.2400652 115.618604,46.2400652 C116.717324,46.2400652 117.443176,46.7521385 117.537636,47.6171945 L119.312492,47.6171945 C119.277691,45.8970257 117.811073,44.6789871 115.643461,44.6789871 C113.505679,44.6789871 111.899857,45.882111 111.904829,47.6818252 C111.904829,49.1434715 112.94389,49.9836696 114.619315,50.4161976 L115.777694,50.7144927 C116.876415,50.9929015 117.602266,51.335941 117.607238,52.1264232 C117.602266,52.9964508 116.776983,53.5781264 115.573859,53.5781264 C114.420451,53.5781264 113.525566,53.0610814 113.450992,51.9921904 L111.636363,51.9921904 C111.710937,54.0156259 113.217327,55.1541192 115.588774,55.1541192 Z M122.812497,55 L122.812497,50.3565385 C122.812497,49.4169087 123.438917,48.7805457 124.214485,48.7805457 C124.975137,48.7805457 125.497154,49.2926191 125.497154,50.0781297 L125.497154,55 L127.262067,55 L127.262067,50.2372205 C127.262067,49.377136 127.77414,48.7805457 128.644168,48.7805457 C129.37002,48.7805457 129.946724,49.2081021 129.946724,50.1527035 L129.946724,55 L131.751409,55 L131.751409,49.8742947 C131.751409,48.1690406 130.767035,47.2642119 129.365048,47.2642119 C128.256384,47.2642119 127.411215,47.8110864 127.073147,48.6612276 L126.993601,48.6612276 C126.700278,47.7961716 125.959511,47.2642119 124.930393,47.2642119 C123.906246,47.2642119 123.140622,47.7912001 122.822441,48.6612276 L122.732952,48.6612276 L122.732952,47.3636436 L121.012783,47.3636436 L121.012783,55 L122.812497,55 Z M135.778406,55.1541192 C136.976558,55.1541192 137.692467,54.5923299 138.020591,53.9509953 L138.080251,53.9509953 L138.080251,55 L139.810362,55 L139.810362,49.8892094 C139.810362,47.8707454 138.164767,47.2642119 136.708093,47.2642119 C135.10227,47.2642119 133.869317,47.9801203 133.47159,49.3721645 L135.151986,49.6108006 C135.330963,49.088784 135.838065,48.6413413 136.718036,48.6413413 C137.553262,48.6413413 138.010648,49.0688977 138.010648,49.8196072 L138.010648,49.8494367 C138.010648,50.3664817 137.468745,50.3913396 136.121446,50.5355156 C134.639913,50.6946064 133.223011,51.1370775 133.223011,52.8572464 C133.223011,54.3586654 134.321731,55.1541192 135.778406,55.1541192 Z M136.245735,53.8316773 C135.495026,53.8316773 134.958094,53.4886378 134.958094,52.8274168 C134.958094,52.1363664 135.559656,51.8480144 136.365053,51.7336679 C136.837354,51.6690373 137.781955,51.5497192 138.01562,51.3607989 L138.01562,52.260656 C138.01562,53.1107973 137.329541,53.8316773 136.245735,53.8316773 Z M143.424713,55 L143.424713,44.8181915 L141.624999,44.8181915 L141.624999,55 L143.424713,55 Z M147.073861,55 L147.073861,44.8181915 L145.274147,44.8181915 L145.274147,55 L147.073861,55 Z" id="Small" fill="#000000"></path>
                <path d="M113.774145,35 L113.774145,27.9900635 L113.868605,27.9900635 L116.682523,34.9701705 L118.004965,34.9701705 L120.818883,28.0049783 L120.913343,28.0049783 L120.913343,35 L122.683227,35 L122.683227,24.8181915 L120.426127,24.8181915 L117.403403,32.1960254 L117.284085,32.1960254 L114.261361,24.8181915 L112.00426,24.8181915 L112.00426,35 L113.774145,35 Z M127.992894,35.1491476 C129.772721,35.1491476 130.995732,34.27912 131.313913,32.9517065 L129.633517,32.7627862 C129.389909,33.4090924 128.793319,33.7471603 128.017752,33.7471603 C126.8544,33.7471603 126.083805,32.981536 126.06889,31.6740089 L131.388487,31.6740089 L131.388487,31.1221628 C131.388487,28.4424778 129.777693,27.2642119 127.898433,27.2642119 C125.710936,27.2642119 124.28409,28.8700343 124.28409,31.2265661 C124.28409,33.6228706 125.691049,35.1491476 127.992894,35.1491476 Z M129.663347,30.4609418 L126.073861,30.4609418 C126.128549,29.4865109 126.849429,28.6661992 127.923291,28.6661992 C128.957381,28.6661992 129.653403,29.4218803 129.663347,30.4609418 Z M135.743604,35.1342328 C137.056103,35.1342328 137.647722,34.3536938 137.931102,33.7968761 L138.040477,33.7968761 L138.040477,35 L139.810362,35 L139.810362,24.8181915 L138.005676,24.8181915 L138.005676,28.6264265 L137.931102,28.6264265 C137.657665,28.0745805 137.095876,27.2642119 135.748576,27.2642119 C133.983663,27.2642119 132.59659,28.6463129 132.59659,31.191765 C132.59659,33.7073876 133.94389,35.1342328 135.743604,35.1342328 Z M136.245735,33.6576717 C135.057525,33.6576717 134.431106,32.6136386 134.431106,31.1818218 C134.431106,29.7599482 135.047582,28.740773 136.245735,28.740773 C137.404114,28.740773 138.040477,29.7002891 138.040477,31.1818218 C138.040477,32.6633545 137.394171,33.6576717 136.245735,33.6576717 Z M142.639203,26.2798379 C143.210935,26.2798379 143.678264,25.8423383 143.678264,25.305407 C143.678264,24.7635041 143.210935,24.3260045 142.639203,24.3260045 C142.062499,24.3260045 141.59517,24.7635041 141.59517,25.305407 C141.59517,25.8423383 142.062499,26.2798379 142.639203,26.2798379 Z M143.534088,35 L143.534088,27.3636436 L141.734374,27.3636436 L141.734374,35 L143.534088,35 Z M147.928974,35.0994317 C149.072439,35.0994317 149.877836,34.4978698 150.225847,33.642757 L150.305392,33.642757 L150.305392,35 L152.050419,35 L152.050419,27.3636436 L150.250705,27.3636436 L150.250705,31.7883553 C150.250705,32.9517065 149.42045,33.5284105 148.624996,33.5284105 C147.75994,33.5284105 147.183236,32.9169054 147.183236,31.9474461 L147.183236,27.3636436 L145.383522,27.3636436 L145.383522,32.2258549 C145.383522,34.0603702 146.427555,35.0994317 147.928974,35.0994317 Z M155.699571,35 L155.699571,30.3565385 C155.699571,29.4169087 156.325991,28.7805457 157.101559,28.7805457 C157.862211,28.7805457 158.384228,29.2926191 158.384228,30.0781297 L158.384228,35 L160.149141,35 L160.149141,30.2372205 C160.149141,29.377136 160.661214,28.7805457 161.531242,28.7805457 C162.257093,28.7805457 162.833797,29.2081021 162.833797,30.1527035 L162.833797,35 L164.638483,35 L164.638483,29.8742947 C164.638483,28.1690406 163.654109,27.2642119 162.252122,27.2642119 C161.143458,27.2642119 160.298288,27.8110864 159.960221,28.6612276 L159.880675,28.6612276 C159.587352,27.7961716 158.846585,27.2642119 157.817467,27.2642119 C156.79332,27.2642119 156.027696,27.7912001 155.709514,28.6612276 L155.620026,28.6612276 L155.620026,27.3636436 L153.899857,27.3636436 L153.899857,35 L155.699571,35 Z" id="Medium" fill="#000000"></path>
                <g id="bubble-chart-legend" transform="translate(0.000000, 23.000000)" stroke="#9095A2" stroke-width="2">
                    <circle id="Oval" cx="25" cy="25" r="26"></circle>
                    <circle id="Oval-Copy-41" cx="25" cy="35" r="16"></circle>
                    <circle id="Oval" cx="25" cy="45" r="6"></circle>
                </g>
                <path d="M25,22.0117187 L37.9547124,9 L99.5,9" id="Path-2" stroke="#9095A2" stroke-dasharray="4,3"></path>
                <path d="M25,43.0117187 L37.9547124,30 L99.5,30" id="Path-2" stroke="#9095A2" stroke-dasharray="4,3"></path>
                <path d="M25,63.0117187 L37.9547124,50 L99.5,50" id="Path-2" stroke="#9095A2" stroke-dasharray="4,3"></path>
            </g>
        </g>
    </g>
</svg>