<?xml version="1.0" encoding="UTF-8"?>
<svg width="17px" height="14px" viewBox="0 0 17 14" version="1.1" xmlns="http://www.w3.org/2000/svg" xmlns:xlink="http://www.w3.org/1999/xlink">
    <!-- Generator: Sketch 61.2 (89653) - https://sketch.com -->
    <title>Path</title>
    <desc>Created with Sketch.</desc>
    <g id="Ari" stroke="none" stroke-width="1" fill="none" fill-rule="evenodd">
        <g id="Vis_03-Copy-2" transform="translate(-1042.000000, -3689.000000)" fill="#FFFFFF" fill-rule="nonzero">
            <g id="Group-8" transform="translate(0.000000, 3665.000000)">
                <g id="Group-26" transform="translate(950.000000, 19.000000)">
                    <path d="M108.8,6.61 C108.17,6.89 107.54,7.1 106.84,7.17 C107.54,6.75 108.1,6.05 108.38,5.28 C107.68,5.7 106.98,5.98 106.21,6.12 C105.58,5.42 104.67,5 103.69,5 C101.8,5 100.26,6.54 100.26,8.43 C100.26,8.71 100.26,8.99 100.33,9.2 C97.39,9.06 94.87,7.66 93.19,5.56 C92.84,6.12 92.7,6.68 92.7,7.31 C92.7,8.5 93.33,9.55 94.24,10.18 C93.68,10.18 93.12,10.04 92.7,9.76 C92.7,9.76 92.7,9.76 92.7,9.83 C92.7,11.51 93.89,12.91 95.43,13.19 C95.15,13.26 94.87,13.33 94.52,13.33 C94.31,13.33 94.1,13.33 93.89,13.26 C94.31,14.66 95.57,15.64 97.11,15.64 C95.92,16.55 94.45,17.11 92.84,17.11 C92.56,17.11 92.28,17.11 92,17.04 C93.54,18.02 95.36,18.58 97.25,18.58 C103.62,18.58 107.05,13.33 107.05,8.78 C107.05,8.64 107.05,8.5 107.05,8.36 C107.75,7.87 108.31,7.24 108.8,6.61 Z" id="Path"></path>
                </g>
            </g>
        </g>
    </g>
</svg>