<?xml version="1.0" encoding="UTF-8"?>
<svg width="16px" height="20px" viewBox="0 0 16 20" version="1.1" xmlns="http://www.w3.org/2000/svg" xmlns:xlink="http://www.w3.org/1999/xlink">
    <!-- Generator: Sketch 61.2 (89653) - https://sketch.com -->
    <title>Shape</title>
    <desc>Created with Sketch.</desc>
    <g id="Ari" stroke="none" stroke-width="1" fill="none" fill-rule="evenodd">
        <g id="Vis_03-Copy-2" transform="translate(-1156.000000, -3686.000000)" fill="#FFFFFF">
            <g id="Group-8" transform="translate(0.000000, 3665.000000)">
                <g id="Group-26" transform="translate(950.000000, 19.000000)">
                    <g id="Shape-2" transform="translate(206.000000, 2.000000)">
                        <path d="M0.910580557,9.15796495 C0.655264221,8.40699861 0.542163563,7.54691271 0.542163563,6.58610108 C0.542163563,4.88047857 1.0740726,4.23695302 1.78795051,3.32762343 C1.24204387,1.38305709 1.983917,0.0540369202 1.983917,0.0540369202 C1.983917,0.0540369202 3.1317207,-0.183787741 5.30134966,1.3690674 C6.47714858,0.865438705 9.61261236,0.823469647 11.0963586,1.25714991 C12.006203,0.655593416 13.6719181,-0.197777427 14.3438032,0.0411664091 C14.5257721,0.333830639 14.9177051,1.18720148 14.5817625,3.0618194 C14.8096436,3.47311617 15.9955208,4.34887051 16,6.82504492 C15.9809633,7.73829162 15.8857795,8.50940311 15.7094097,9.16132247 C15.7429747,9.16104364 15.4841645,9.96970391 15.4227387,9.96768797 C14.6360733,11.6945188 13.0224292,12.3392195 10.4149551,12.6072619 C11.2598506,13.13887 11.5022892,13.8058982 11.5022892,15.6105677 C11.5022892,17.4152372 11.4782133,17.6575385 11.4838123,18.0727524 C11.4927708,18.7537703 12.49164,19.0800098 12.4541264,19.2993681 C12.4166128,19.5181668 11.6181894,19.4829128 11.2452931,19.3525289 C10.1881939,18.9843204 10.2940158,18.1052085 10.2940158,18.1052085 L10.2587419,15.6922675 C10.2587419,15.6922675 10.3309695,14.393465 9.85057166,14.393465 L9.85057166,18.3430332 C9.85057166,19.2014403 10.4524687,19.462208 10.4524687,19.7794941 C10.4524687,20.3250919 9.35393659,19.7280121 9.01519453,19.3877829 C8.49952271,18.8701645 8.55831266,17.772254 8.57063055,16.9043338 C8.58238854,16.0660719 8.56279189,14.2323038 8.56279189,14.2323038 L8.21285174,14.2395785 C8.21285174,14.2395785 8.35618723,18.2451054 8.02808334,18.9748074 C7.60367592,19.9121163 6.32317491,20.2344387 6.32317491,19.8074735 C6.32317491,19.5204051 6.638401,19.6116179 6.81309112,18.9680923 C6.96202565,18.4208158 6.91107437,14.3375063 6.91107437,14.3375063 C6.91107437,14.3375063 6.50066455,14.5798076 6.50066455,15.3447637 C6.50066455,15.6945058 6.49114618,17.6944713 6.49114618,18.2893128 C6.49114618,19.0380408 5.42732811,19.4644464 4.91613554,19.4644464 C4.65745977,19.4644464 4.33551483,19.4515759 4.33551483,19.3144769 C4.33551483,18.9680923 5.30806851,18.7649621 5.30806851,18.044773 C5.30806851,17.4202735 5.29463081,15.8136979 5.29463081,15.8136979 C5.29463081,15.8136979 4.80415469,15.897636 4.10427438,15.897636 C2.340576,15.897636 1.78291137,14.7728653 1.51751676,14.1433294 C1.17205584,13.3235338 0.724132443,12.9385377 0.248213834,12.6307646 C-0.044056183,12.441624 -0.111244693,12.2189082 0.226937472,12.1551153 C1.78795051,11.8613319 2.18716224,13.9245307 3.22970395,14.2535682 C3.97381669,14.4880353 4.93069305,14.38675 5.40661166,14.0789769 C5.46932093,13.4488814 5.92396318,12.9038433 6.30245845,12.6167749 C3.65075194,12.3621626 2.07854082,11.4416413 1.26332023,9.9620921 C1.2530009,9.96233984 0.879281992,9.15788782 0.910580557,9.15796495 Z" id="Shape"></path>
                    </g>
                </g>
            </g>
        </g>
    </g>
</svg>