<?xml version="1.0" encoding="UTF-8"?>
<svg width="14px" height="14px" viewBox="0 0 14 14" version="1.1" xmlns="http://www.w3.org/2000/svg" xmlns:xlink="http://www.w3.org/1999/xlink">
    <!-- Generator: Sketch 61.2 (89653) - https://sketch.com -->
    <title>Combined Shape</title>
    <desc>Created with Sketch.</desc>
    <g id="Ari" stroke="none" stroke-width="1" fill="none" fill-rule="evenodd">
        <g id="Vis_03-Copy-2" transform="translate(-1118.000000, -3689.000000)" fill="#FFFFFF">
            <g id="Group-8" transform="translate(0.000000, 3665.000000)">
                <g id="Group-26" transform="translate(950.000000, 19.000000)">
                    <path d="M177.916667,9.2 C180.716667,9.2 181.183333,11.0666667 181.183333,13.4 L181.183333,18.3 L178.5,18.3 L178.499363,13.737574 C178.491716,12.7434911 178.392308,11.65 177.1,11.65 C175.7,11.65 175.466667,12.8166667 175.466667,13.9833333 L175.466667,18.4166667 L172.666667,18.4166667 L172.666667,9.43333333 L175.35,9.43333333 L175.35,10.6 C175.7,9.9 176.633333,9.2 177.916667,9.2 Z M171.033333,9.43333333 L171.033333,18.3 L168.233333,18.3 L168.233333,9.43333333 L171.033333,9.43333333 Z M169.633333,5 C170.566667,5 171.266667,5.7 171.266667,6.63333333 C171.15,7.45 170.45,8.26666667 169.633333,8.26666667 C168.7,8.26666667 168,7.45 168,6.63333333 C168,5.7 168.7,5 169.633333,5 Z" id="Combined-Shape"></path>
                </g>
            </g>
        </g>
    </g>
</svg>