<?xml version="1.0" encoding="UTF-8"?>
<svg width="164px" height="37px" viewBox="0 0 164 37" version="1.1" xmlns="http://www.w3.org/2000/svg" xmlns:xlink="http://www.w3.org/1999/xlink">
    <!-- Generator: Sketch 61.1 (89650) - https://sketch.com -->
    <title>vizzuality</title>
    <desc>Created with Sketch.</desc>
    <g id="Ari" stroke="none" stroke-width="1" fill="none" fill-rule="evenodd">
        <g id="Vis_03-Copy-2" transform="translate(-558.000000, -3678.000000)" fill="#FFFFFF" fill-rule="nonzero">
            <g id="Group-8" transform="translate(0.000000, 3665.000000)">
                <path d="M578,21 L570.677376,42 L565.322624,42 L558,21 L563.167336,21 L567.892905,36.5996094 L568.107095,36.5996094 L572.846051,21 L578,21 Z M580,42 L580,21 L585,21 L585,42 L580,42 Z M582.00716,18 C580.346062,18 579,16.8804071 579,15.5063613 C579,14.1195929 580.346062,13 582.00716,13 C583.653938,13 585,14.1195929 585,15.5063613 C585,16.8804071 583.653938,18 582.00716,18 Z M588,42 L588,38.8554688 L598.67724,25.2792969 L598.67724,25.1015625 L588.350515,25.1015625 L588.350515,21 L604.649485,21 L604.649485,24.3769531 L594.484536,37.7207031 L594.484536,37.8984375 L605,37.8984375 L605,42 L588,42 Z M607,42 L607,38.8554688 L617.67724,25.2792969 L617.67724,25.1015625 L607.350515,25.1015625 L607.350515,21 L623.649485,21 L623.649485,24.3769531 L613.484536,37.7207031 L613.484536,37.8984375 L624,37.8984375 L624,42 L607,42 Z M640.14094,33.0115681 L640.14094,21 L645,21 L645,41.7300771 L640.288591,41.7300771 L640.288591,38.0456298 L640.073826,38.0456298 C639.134228,40.3669666 636.959732,42 633.872483,42 C629.818792,42 627,39.1793059 627,34.1992288 L627,21 L631.85906,21 L631.85906,33.4434447 C631.85906,36.0751928 633.416107,37.7352185 635.751678,37.7352185 C637.899329,37.7352185 640.14094,36.1696658 640.14094,33.0115681 Z M653.982642,43 C650.002264,43 647,40.7819786 647,36.5954631 C647,31.7989918 650.871698,30.5652174 654.92,30.1216131 C658.601509,29.7195967 660.082264,29.6502836 660.082264,28.2085696 L660.082264,28.1253938 C660.082264,26.0321361 658.832453,24.8399496 656.550189,24.8399496 C654.14566,24.8399496 652.76,26.0875866 652.270943,27.5431632 L647.679245,26.8777568 C648.766038,22.9962193 652.135094,21 656.523019,21 C660.503396,21 665,22.6912413 665,28.3194707 L665,42.5702583 L660.272453,42.5702583 L660.272453,39.6452426 L660.109434,39.6452426 C659.21283,41.4335224 657.256604,43 653.982642,43 Z M655.369106,39 C658.204878,39 660,36.9577465 660,34.5492958 L660,32 C659.388618,32.5352113 656.917073,32.8732394 655.681301,33.056338 C653.573984,33.3802817 652,34.1971831 652,36.1549296 C652,38.028169 653.404878,39 655.369106,39 Z M673,14 L673,42 L668,42 L668,14 L673,14 Z M676,42 L676,21 L681,21 L681,42 L676,42 Z M679.00716,18 C677.346062,18 676,16.8804071 676,15.5063613 C676,14.1195929 677.346062,13 679.00716,13 C680.653938,13 682,14.1195929 682,15.5063613 C682,16.8804071 680.653938,18 679.00716,18 Z M694.631175,20.9695634 L694.631175,24.7507529 L690.639956,24.7507529 L690.639956,35.473126 C690.639956,37.4447462 691.601537,37.8768822 692.80022,37.8768822 C693.392975,37.8768822 693.933041,37.7553439 694.196487,37.6878227 L695,41.5095249 C694.486279,41.6850802 693.551043,41.9551651 692.194292,41.9956779 C688.611416,42.1037119 685.845225,40.1861086 685.87157,36.2833809 L685.87157,24.7507529 L683,24.7507529 L683,20.9695634 L685.87157,20.9695634 L685.87157,16 L690.639956,16 L690.639956,20.9695634 L694.631175,20.9695634 Z M700.639037,50 C699.315508,50 698.139037,49.7524893 697.483957,49.4637269 L698.606952,45.5998103 C700.719251,46.218587 702.109626,46.0398293 703.032086,43.7022285 L703.446524,42.5609294 L696,21 L701.13369,21 L705.86631,36.9506875 L706.080214,36.9506875 L710.826203,21 L716,21.0275012 L707.751337,44.6785206 C706.588235,47.9924135 704.409091,50 700.639037,50 Z M719.000051,43 C717.336443,43 715.986466,41.6575342 716.000102,39.9863014 C715.986466,38.3424658 717.336443,37 719.000051,37 C720.609115,37 721.986364,38.3424658 722,39.9863014 C721.986364,41.6575342 720.609115,43 719.000051,43 Z" id="vizzuality."></path>
            </g>
        </g>
    </g>
</svg>